<svg xmlns="http://www.w3.org/2000/svg" aria-hidden="true" style="position:absolute;width:0;height:0;overflow:hidden"><defs>

<symbol id="icon-burder-btn" viewBox="0 0 42 32"><path stroke-width=".901" d="M10.817 9.465h20.732M10.817 15.775h20.732M10.817 22.084h20.732"/></symbol>

<symbol id="icon-logo" viewBox="0 0 182 32"><path d="M8.746 18.571V30l3.475.367v.98H0v-.98L3.474 30V5.429L0 4.98v-.939h20.368v5.837H19.09l-1.518-4.327-8.826-.122v11.673h7.788l1.238-3.02h1.158v7.592h-1.198l-1.198-3.102H8.746zM40.951 28.857c-1.864 1.959-4.406 2.939-7.628 2.939s-5.764-.98-7.628-2.939c-1.864-1.959-2.796-4.449-2.796-7.469s.932-5.51 2.796-7.469c1.864-1.959 4.406-2.939 7.628-2.939s5.764.98 7.628 2.939c1.864 1.959 2.796 4.449 2.796 7.469s-.932 5.51-2.796 7.469zM28.45 21.388c0 6.286 1.624 9.429 4.872 9.429s4.872-3.143 4.872-9.429c0-3.075-.359-5.401-1.078-6.98C36.397 12.803 35.132 12 33.322 12s-3.075.803-3.794 2.408c-.719 1.578-1.078 3.905-1.078 6.98zM64.897 28.857c-1.864 1.959-4.407 2.939-7.628 2.939s-5.764-.98-7.628-2.939c-1.864-1.959-2.796-4.449-2.796-7.469s.932-5.51 2.796-7.469c1.864-1.959 4.406-2.939 7.628-2.939s5.764.98 7.628 2.939c1.864 1.959 2.795 4.449 2.795 7.469s-.932 5.51-2.795 7.469zm-12.5-7.469c0 6.286 1.624 9.429 4.872 9.429s4.873-3.143 4.873-9.429c0-3.075-.36-5.401-1.079-6.98C60.344 12.803 59.079 12 57.269 12s-3.075.803-3.794 2.408c-.719 1.578-1.078 3.905-1.078 6.98zM79.259 31.959c-2.423 0-4.433-.83-6.03-2.49s-2.396-4.163-2.396-7.51.945-5.986 2.836-7.918c1.917-1.932 4.46-2.898 7.628-2.898a9.71 9.71 0 0 1 4.673 1.184V1.96l-3.435-.245V.695l8.546-.694v30.408l3.395.163.04.939-8.347.49.08-3.673h-.24c-.665 1.143-1.611 2.041-2.835 2.694a8.483 8.483 0 0 1-3.914.939zm6.669-6.898V13.837c-1.065-1.007-2.423-1.51-4.073-1.51-2.104 0-3.541.993-4.313 2.98-.639 1.741-.958 3.959-.958 6.653 0 5.796 1.265 8.694 3.794 8.694 1.491 0 2.782-.653 3.874-1.959 1.118-1.306 1.678-2.517 1.678-3.633zM96.464 10.082v-6L119.707 4v1.265l-17.253 24 14.417.082 1.398-4.49h1.318v5.959l-23.683.082v-1.143l17.413-24.122-14.137-.082-1.398 4.531h-1.318zM136.002 17.102c0-3.32-1.131-4.98-3.394-4.98-2.37 0-3.807 2.122-4.313 6.367h7.628a14.65 14.65 0 0 0 .079-1.388zm-3.754 14.694c-2.849 0-5.165-.952-6.949-2.857-1.757-1.905-2.636-4.422-2.636-7.551s.919-5.646 2.756-7.551c1.864-1.905 4.22-2.857 7.069-2.857s4.978.626 6.39 1.877c1.411 1.224 2.117 2.939 2.117 5.143 0 .626-.053 1.279-.16 1.959h-12.66v1.429c0 3.048.373 5.361 1.118 6.939.745 1.551 1.864 2.327 3.355 2.327 1.518 0 2.889-.313 4.114-.939 1.252-.653 2.223-1.565 2.916-2.735.585.19.878.476.878.857 0 .68-.626 1.469-1.877 2.367-.613.435-1.491.816-2.636 1.143-1.118.299-2.383.449-3.794.449zM151.223 16.245c.453-1.469 1.278-2.721 2.476-3.755 1.224-1.034 2.329-1.551 3.314-1.551 1.012 0 1.691.258 2.037.775.346.49.519.898.519 1.225 0 1.116-.399 1.918-1.198 2.408-.533-.435-1.332-.653-2.396-.653-1.038 0-2.076.34-3.115 1.02-1.038.653-1.557 1.374-1.557 2.163v12.286l3.594.245v.939h-11.142v-.939l2.636-.204V12.775l-3.235-.163v-.939l8.147-.449-.239 5.02h.159zM179.13 28.857c-1.864 1.959-4.406 2.939-7.628 2.939s-5.764-.98-7.628-2.939-2.795-4.449-2.795-7.469c0-3.02.932-5.51 2.795-7.469s4.407-2.939 7.628-2.939c3.222 0 5.764.98 7.628 2.939s2.796 4.449 2.796 7.469c0 3.02-.932 5.51-2.796 7.469zm-12.5-7.469c0 6.286 1.624 9.429 4.872 9.429s4.872-3.143 4.872-9.429c0-3.075-.359-5.401-1.078-6.98-.719-1.605-1.984-2.408-3.794-2.408s-3.075.803-3.794 2.408c-.719 1.578-1.079 3.905-1.079 6.98z"/></symbol>

<symbol id="icon-subtract" viewBox="0 0 53 32"><path d="M.557.557H52.87v6.957h.557V.001H.001v7.513h.557V.557zm0 23.652H0V32h53.426v-7.791h-.557v7.235H.556v-7.235z"/></symbol>

<symbol id="icon-angle-down" viewBox="0 0 56 32"><path stroke-width="4" d="m3 3 25 25L53 3"/></symbol>

<symbol id="icon-arrow-left" viewBox="0 0 55 32"><path d="m15.731 1.122 3.118 3.186-9.484 9.477H53.79v4.429H9.365l9.482 9.479-3.115 3.184L.859 15.999 15.732 1.121z"/></symbol>

<symbol id="icon-arrow-right" viewBox="0 0 55 32"><path d="m38.916 1.122-3.118 3.186 9.484 9.477H.857v4.429h44.425L35.8 27.693l3.115 3.184 14.873-14.878L38.915 1.121z"/></symbol>

<symbol id="icon-close" viewBox="0 0 32 32"><path d="M19.556 3.556a3.556 3.556 0 1 1-7.112 0 3.556 3.556 0 0 1 7.112 0zM19.556 16a3.556 3.556 0 1 1-7.112 0 3.556 3.556 0 0 1 7.112 0zM19.556 28.444a3.556 3.556 0 1 1-7.112 0 3.556 3.556 0 0 1 7.112 0zM32 3.556a3.556 3.556 0 1 1-7.112 0 3.556 3.556 0 0 1 7.112 0zM32 16a3.556 3.556 0 1 1-7.112 0A3.556 3.556 0 0 1 32 16zM32 28.444a3.556 3.556 0 1 1-7.112 0 3.556 3.556 0 0 1 7.112 0zM7.111 3.556a3.556 3.556 0 1 1-7.112 0 3.556 3.556 0 0 1 7.112 0zM7.111 16a3.556 3.556 0 1 1-7.112 0 3.556 3.556 0 0 1 7.112 0zM7.111 28.444a3.556 3.556 0 1 1-7.112 0 3.556 3.556 0 0 1 7.112 0z"/></symbol>

<symbol id="icon-carrot" viewBox="0 0 32 32"><path d="M22.875 3.156 21.75 4.812s.613.477.906 1.157c.254.597.438 1.297-.531 2.468l-.875.876c-2.945-2.508-5.938-2.626-5.938-2.626h-.562l-.313.5s-2.55 4.336-5 8.813C8.212 18.238 7 20.516 6.158 22.313c-.423.898-.755 1.68-.97 2.312-.105.316-.18.582-.218.875-.04.293-.149.695.343 1.188.493.492.895.382 1.188.343s.559-.113.875-.218c.633-.215 1.414-.547 2.313-.97C11.483 25 13.761 23.79 16 22.564c4.473-2.454 8.813-5 8.813-5l.5-.313v-.594s-.133-2.957-2.625-5.906l.343-.375c.086-.086.164-.145.25-.219l.25-.219c1.18-.906 2.297-.87 3.282-.624a5.794 5.794 0 0 1 1.906.874l1.25-1.562s-1.11-.855-2.688-1.25a6.342 6.342 0 0 0-1.062-.156l2.031-2.032-1.438-1.437-2.093 2.094a3.772 3.772 0 0 0-.219-.688c-.563-1.312-1.625-2-1.625-2v-.001zm-7.063 5.656c.657.063 2.536.336 4.782 2.594 2.25 2.266 2.527 4.13 2.593 4.781-.164.098-1.019.614-1.687 1a11.627 11.627 0 0 0-1.313-2.218l-1.593 1.219c.703.937.992 1.582 1.156 2a349.904 349.904 0 0 1-4.719 2.625c-.097.05-.183.105-.281.156A7.356 7.356 0 0 0 13.719 19l-1.625 1.156c.492.688.734 1.254.844 1.625.019.063.019.078.03.125-1.495.801-2.94 1.57-4.124 2.125-.617.29-1.055.45-1.5.625.176-.445.336-.883.625-1.5.808-1.722 2.004-3.968 3.218-6.187.586-1.07 1.032-1.871 1.563-2.813.32.281.734.66 1.188 1.25l1.562-1.219a10.317 10.317 0 0 0-1.75-1.812c1.047-1.836 1.883-3.254 2.063-3.563h-.001z"/></symbol>

<symbol id="icon-facebook" viewBox="0 0 32 32"><path d="M2.909 0A2.93 2.93 0 0 0 0 2.909v26.182A2.93 2.93 0 0 0 2.909 32h26.182A2.93 2.93 0 0 0 32 29.091V2.909A2.93 2.93 0 0 0 29.091 0H2.909zm0 2.909h26.182v26.182h-7.546v-9.818h3.773l.545-4.364h-4.317V12.09c0-1.271.311-2.135 2.135-2.135h2.364V6c-.403-.051-1.801-.137-3.408-.137-3.353 0-5.636 2.017-5.636 5.773v3.273h-3.818v4.364H17v9.818H2.91V2.909z"/></symbol>

<symbol id="icon-fish" viewBox="0 0 32 32"><path d="m10.5 5.5.563 1.375c.351.855.828 2.992.718 4-1.363.84-2.199 1.66-2.844 2.344C8.149 12.582 6.59 11.5 4 11.5H3v1c0 1.914.691 3.469.938 4-.25.527-.938 2.027-.938 4v1h1c2.57 0 4.148-1.086 4.938-1.719 1.183 1.219 2.87 2.504 5 3.469-.094.621-.168 1.488.093 2.5l.188.75H15c1.234 0 2.297-.613 3.156-1.156.703-.446 1.043-.758 1.219-.907 3.977-.14 6.516-2.285 7.875-4.406C28.656 17.84 29 15.656 29 15.656l.031-.25-.093-.25s-2.29-6.289-8.5-6.594c-.66-.8-1.583-1.464-2.875-2C16.035 5.93 14.113 5.5 12 5.5h-1.5zm2.906 2.125c1.262.14 2.442.395 3.375.781 1.278.528 2.168 1.285 2.375 1.625l.282.469H20c4.996 0 6.793 4.73 6.938 5.125-.07.367-.36 1.762-1.375 3.344C24.402 20.777 22.523 22.5 19 22.5h-.375l-.281.25s-.528.45-1.25.906c-.38.239-.703.282-1.094.438.04-.457 0-1.125 0-1.125l.219-.875-.813-.282c-2.476-.945-4.582-2.726-5.656-3.968l-.688-.813-.75.75s-1.332.934-3.062 1.375c.258-1.172.656-2.218.656-2.218l.219-.438-.219-.438s-.433-1.148-.687-2.375c1.843.407 3.093 1.532 3.093 1.532l.75.75.688-.813c.895-1.011 3.305-3.531 6.844-4l-.282-1.969c-.957.126-1.792.403-2.593.72-.051-.84-.094-1.563-.313-2.282zM22.5 14.5A1.503 1.503 0 0 0 21 16a1.503 1.503 0 0 0 1.5 1.5A1.503 1.503 0 0 0 24 16a1.503 1.503 0 0 0-1.5-1.5z"/></symbol>

<symbol id="icon-instagram" viewBox="0 0 32 32"><path d="M9.409 0C4.244 0 0 4.239 0 9.409V22.59C0 27.755 4.239 32 9.409 32H22.59c5.165 0 9.41-4.239 9.41-9.41V9.41c0-5.167-4.239-9.411-9.41-9.411H9.409zm0 2.909H22.59a6.498 6.498 0 0 1 4.599 1.901c.604.604 1.082 1.321 1.409 2.11s.494 1.635.492 2.489V22.59a6.498 6.498 0 0 1-1.901 4.599c-.604.604-1.321 1.082-2.11 1.409s-1.635.494-2.489.492H9.41a6.498 6.498 0 0 1-4.6-1.901 6.489 6.489 0 0 1-1.902-4.599V9.41a6.498 6.498 0 0 1 1.901-4.6 6.489 6.489 0 0 1 4.599-1.902zM24.59 6.092a1.306 1.306 0 0 0-.933.385 1.325 1.325 0 0 0-.385.933c0 .733.585 1.318 1.318 1.318a1.314 1.314 0 0 0 1.221-1.824 1.292 1.292 0 0 0-.286-.428 1.329 1.329 0 0 0-.935-.383zM16 7.273c-4.8 0-8.727 3.927-8.727 8.727S11.2 24.727 16 24.727c4.8 0 8.727-3.927 8.727-8.727S20.8 7.273 16 7.273zm0 2.909c3.233 0 5.818 2.585 5.818 5.818S19.233 21.818 16 21.818c-3.233 0-5.818-2.585-5.818-5.818s2.585-5.818 5.818-5.818z"/></symbol>

<symbol id="icon-lemon" viewBox="0 0 32 32"><path d="M12 4C9.418 4 7.121 5.438 5.531 7.625S3 12.765 3 16c0 3.234.941 6.188 2.531 8.375S9.418 28 12 28c8.23 0 12.617-4.707 13.688-9.656C26.44 17.8 27 16.996 27 16s-.559-1.8-1.313-2.344C24.56 8.582 19.313 4 12 4zm0 2c1.836 0 3.54 1.016 4.844 2.813C18.148 10.608 19 13.16 19 16s-.852 5.39-2.156 7.188C15.539 24.983 13.836 26 12 26s-3.54-1.016-4.844-2.813C5.852 21.392 5 18.84 5 16s.852-5.39 2.156-7.188C8.461 7.016 10.164 6 12 6zm6.375 1.531c3.04 1.61 4.992 4.258 5.469 6.844l.093.5.47.219c.347.16.593.496.593.906s-.246.746-.594.906l-.468.219-.094.5c-.532 2.895-2.278 5.734-5.782 7.25.137-.164.278-.324.407-.5C20.059 22.187 21 19.235 21 16s-.941-6.188-2.531-8.375c-.028-.035-.067-.059-.094-.094zM12 8c-.715 0-1.387.258-2 .688l2.031 4.78 2.063-4.75C13.46 8.255 12.742 8 12 8zm-3.5 2.281c-.785 1.23-1.324 2.88-1.469 4.719H10.5l-2-4.719zm7.063.094L13.53 15h3.438c-.14-1.797-.649-3.402-1.407-4.625h.002zM7.03 17c.14 1.797.649 3.402 1.406 4.625L10.47 17H7.03zm6.469 0 2 4.719c.785-1.23 1.324-2.88 1.469-4.719h-3.469zm-1.531 1.531-2.063 4.75c.633.465 1.352.719 2.094.719.715 0 1.387-.258 2-.688l-2.031-4.781z"/></symbol>

<symbol id="icon-search" viewBox="0 0 32 32"><path d="M12.307 0c6.784 0 12.308 5.524 12.308 12.308 0 2.948-1.034 5.649-2.769 7.77l9.808 9.806-1.771 1.772-9.807-9.808a12.21 12.21 0 0 1-7.769 2.768c-6.784 0-12.308-5.524-12.308-12.308S5.523 0 12.307 0zm0 2.462c-5.452 0-9.846 4.394-9.846 9.846s4.394 9.846 9.846 9.846 9.846-4.394 9.846-9.846-4.394-9.846-9.846-9.846z"/></symbol>

<symbol id="icon-twitter" viewBox="0 0 41 32"><path d="M40.727 3.796a17.093 17.093 0 0 1-4.799 1.268A8.156 8.156 0 0 0 39.6.598a17.202 17.202 0 0 1-5.303 1.962C33.152 1.376 31.664.553 30.028.198s-3.345-.227-4.904.368c-1.559.596-2.897 1.631-3.84 2.972s-1.446 2.924-1.445 4.545c0 .635.073 1.25.221 1.839-3.323-.158-6.575-.991-9.543-2.445S4.931 3.981 2.834 1.483a7.808 7.808 0 0 0-1.132 4.063c0 2.8 1.471 5.273 3.718 6.722a8.52 8.52 0 0 1-3.784-1.014v.103c-.001 1.865.666 3.673 1.888 5.117s2.923 2.434 4.815 2.802a8.603 8.603 0 0 1-3.774.141c.534 1.605 1.572 3.008 2.971 4.015s3.088 1.565 4.831 1.598c-1.733 1.315-3.718 2.287-5.84 2.859s-4.34.735-6.528.479a24.219 24.219 0 0 0 12.807 3.633c15.371 0 23.778-12.308 23.778-22.983 0-.344-.014-.699-.027-1.045a16.803 16.803 0 0 0 4.169-4.174v-.002z"/></symbol>

<symbol id="icon-youtube" viewBox="0 0 41 32"><path d="M20.364 0C14.465 0 9.252.624 6.07 1.101A6.266 6.266 0 0 0 .832 6.2C.423 8.482 0 11.819 0 16s.423 7.52.832 9.8a6.262 6.262 0 0 0 5.238 5.101C9.266 31.375 14.496 32 20.364 32s11.1-.624 14.294-1.101a6.258 6.258 0 0 0 5.238-5.099c.409-2.288.832-5.632.832-9.8s-.417-7.512-.832-9.8a6.27 6.27 0 0 0-5.238-5.101C31.477.625 26.262 0 20.364 0zm0 3.2c5.691 0 10.776.594 13.854 1.05.64.093 1.234.39 1.7.848s.778 1.053.894 1.703c.379 2.112.783 5.243.783 9.2 0 3.95-.404 7.088-.783 9.2-.114.65-.426 1.247-.892 1.705s-1.062.754-1.702.845c-3.092.456-8.2 1.05-13.854 1.05-5.655 0-10.769-.594-13.854-1.05-.64-.093-1.235-.389-1.701-.847s-.778-1.054-.893-1.704c-.379-2.112-.783-5.237-.783-9.2 0-3.968.404-7.088.783-9.2.115-.65.427-1.246.893-1.704s1.061-.754 1.701-.847c3.072-.456 8.163-1.05 13.854-1.05zm-4.7 3.65v18.302l2.35-1.35 10.965-6.4L31.329 16l-2.35-1.4-10.965-6.4-2.35-1.35zm3.133 5.5L25.014 16l-6.217 3.65v-7.299z"/></symbol>

</defs></svg>